<svg width="26" height="26" viewBox="0 0 26 26" fill="none" xmlns="http://www.w3.org/2000/svg">
<path d="M20.2222 21.6667H4.33333V5.77779H13.8811L15.3256 4.33334H4.33333C3.95024 4.33334 3.58284 4.48553 3.31196 4.75641C3.04107 5.0273 2.88889 5.3947 2.88889 5.77779V21.6667C2.88889 22.0498 3.04107 22.4172 3.31196 22.6881C3.58284 22.9589 3.95024 23.1111 4.33333 23.1111H20.2222C20.6053 23.1111 20.9727 22.9589 21.2436 22.6881C21.5145 22.4172 21.6667 22.0498 21.6667 21.6667V10.8333L20.2222 12.2778V21.6667Z" fill="#FDFF86"/>
<path d="M24.2161 4.21779L21.7822 1.7839C21.6742 1.67558 21.5459 1.58965 21.4046 1.53102C21.2633 1.47238 21.1119 1.4422 20.9589 1.4422C20.8059 1.4422 20.6545 1.47238 20.5132 1.53102C20.3719 1.58965 20.2436 1.67558 20.1356 1.7839L10.2339 11.7433L9.43222 15.2172C9.39807 15.3856 9.40166 15.5595 9.44273 15.7263C9.48381 15.8932 9.56135 16.0488 9.66978 16.1821C9.7782 16.3154 9.91482 16.423 10.0698 16.4972C10.2248 16.5714 10.3943 16.6103 10.5661 16.6111C10.6549 16.6209 10.7445 16.6209 10.8333 16.6111L14.3361 15.8383L24.2161 5.86445C24.3244 5.75644 24.4104 5.62811 24.469 5.48683C24.5276 5.34555 24.5578 5.19408 24.5578 5.04112C24.5578 4.88815 24.5276 4.73669 24.469 4.59541C24.4104 4.45412 24.3244 4.3258 24.2161 4.21779V4.21779ZM13.585 14.5022L10.9417 15.0872L11.5556 12.4656L19.0089 4.96167L21.0456 6.99834L13.585 14.5022ZM21.8617 6.18223L19.825 4.14556L20.9444 3.00445L22.9956 5.05556L21.8617 6.18223Z" fill="#FDFF86"/>
</svg>
