<svg width="26" height="26" viewBox="0 0 26 26" fill="none" xmlns="http://www.w3.org/2000/svg">
<path d="M22.6814 7.44707L18.5529 3.31855C18.3625 3.12812 18.1289 2.98848 17.875 2.9123V2.84375H3.65625C3.20684 2.84375 2.84375 3.20684 2.84375 3.65625V22.3438C2.84375 22.7932 3.20684 23.1562 3.65625 23.1562H22.3438C22.7932 23.1562 23.1562 22.7932 23.1562 22.3438V8.59473C23.1562 8.16309 22.9861 7.75176 22.6814 7.44707ZM9.75 4.67188H16.25V7.3125H9.75V4.67188ZM21.3281 21.3281H4.67188V4.67188H8.125V8.125C8.125 8.57441 8.48809 8.9375 8.9375 8.9375H17.0625C17.5119 8.9375 17.875 8.57441 17.875 8.125V5.22539L21.3281 8.67852V21.3281ZM13 11.2227C10.9814 11.2227 9.34375 12.8604 9.34375 14.8789C9.34375 16.8975 10.9814 18.5352 13 18.5352C15.0186 18.5352 16.6562 16.8975 16.6562 14.8789C16.6562 12.8604 15.0186 11.2227 13 11.2227ZM13 16.9102C11.8777 16.9102 10.9688 16.0012 10.9688 14.8789C10.9688 13.7566 11.8777 12.8477 13 12.8477C14.1223 12.8477 15.0312 13.7566 15.0312 14.8789C15.0312 16.0012 14.1223 16.9102 13 16.9102Z" fill="#FDFF86"/>
</svg>
